<svg xmlns="http://www.w3.org/2000/svg" xmlns:xlink="http://www.w3.org/1999/xlink" width="1000" zoomAndPan="magnify" viewBox="0 0 750 749.999995" height="1000" preserveAspectRatio="xMidYMid meet" version="1.0"><defs><clipPath id="a327172f92"><path d="M 195 81 L 555 81 L 555 669 L 195 669 Z M 195 81 " clip-rule="nonzero"/></clipPath></defs><g clip-path="url(#a327172f92)"><path fill="#000000" d="M 303.679688 230.761719 L 303.679688 182.015625 C 303.679688 175.222656 307.675781 169.628906 314.066406 166.832031 L 316.464844 166.03125 L 527.832031 84.523438 L 533.425781 82.523438 C 538.617188 80.527344 543.8125 81.328125 548.207031 84.125 C 552.601562 87.320312 555 91.714844 555 97.308594 L 555 215.976562 C 555 222.769531 551.003906 228.363281 544.613281 231.160156 L 542.214844 231.957031 L 245.34375 346.632812 C 238.949219 349.027344 234.957031 355.023438 234.957031 361.816406 L 234.957031 387.785156 C 234.957031 393.378906 237.351562 397.773438 241.746094 400.972656 C 246.144531 404.167969 251.738281 404.566406 256.53125 402.570312 L 527.429688 297.484375 L 533.023438 295.488281 C 538.21875 293.492188 543.414062 294.289062 547.808594 297.085938 C 552.203125 300.28125 554.601562 305.078125 554.601562 310.273438 L 554.601562 420.949219 C 554.601562 427.742188 550.605469 433.335938 544.210938 435.734375 L 541.816406 436.53125 L 454.3125 470.492188 C 447.917969 472.890625 443.921875 478.882812 443.921875 485.277344 L 443.921875 596.753906 C 443.921875 603.148438 440.726562 608.339844 435.132812 611.136719 L 432.734375 612.335938 L 331.648438 663.878906 L 325.65625 666.675781 C 320.460938 669.472656 314.867188 669.074219 310.070312 665.875 C 305.277344 662.679688 302.480469 657.886719 302.480469 652.292969 L 302.480469 465.699219 C 302.480469 458.90625 306.476562 453.3125 312.867188 450.515625 L 320.859375 447.320312 C 326.054688 445.320312 331.25 446.121094 335.644531 448.917969 C 340.039062 452.113281 342.4375 456.507812 342.4375 462.101562 L 342.4375 586.363281 C 342.4375 591.957031 345.234375 597.152344 350.027344 599.949219 C 354.824219 603.144531 360.417969 603.144531 365.609375 600.75 L 394.378906 585.964844 C 399.972656 583.167969 403.167969 577.972656 403.167969 571.582031 L 403.167969 457.308594 C 403.167969 450.515625 407.164062 444.921875 413.558594 442.523438 L 415.953125 441.726562 L 503.457031 407.761719 C 509.851562 405.367188 513.84375 399.371094 513.84375 392.980469 L 513.84375 368.207031 C 513.84375 362.613281 511.449219 358.21875 507.054688 355.023438 C 502.65625 351.824219 497.464844 351.425781 492.269531 353.425781 L 329.648438 416.554688 L 249.339844 447.71875 L 221.371094 458.507812 L 215.777344 460.503906 C 210.582031 462.503906 205.386719 461.703125 200.992188 458.90625 C 196.597656 455.710938 194.199219 450.914062 194.199219 445.722656 L 194.199219 333.847656 C 194.199219 327.054688 198.195312 321.460938 204.589844 318.664062 L 206.988281 317.863281 L 253.335938 299.882812 L 386.386719 248.339844 L 503.855469 202.792969 C 510.25 200.394531 514.246094 194.402344 514.246094 187.609375 L 514.246094 154.445312 C 514.246094 148.851562 511.847656 144.457031 507.453125 141.257812 C 503.058594 138.0625 497.863281 137.664062 492.667969 139.660156 L 353.625 193.203125 C 347.230469 195.597656 343.234375 201.59375 343.234375 208.386719 L 343.234375 226.765625 C 343.234375 233.558594 339.238281 239.152344 332.847656 241.949219 L 324.855469 245.144531 C 319.660156 247.140625 314.46875 246.34375 310.070312 243.546875 C 305.675781 240.351562 303.28125 235.953125 303.28125 230.359375 Z M 303.679688 230.761719 " fill-opacity="1" fill-rule="evenodd"/></g></svg>