<?xml version="1.0" standalone="no"?>
<!DOCTYPE svg PUBLIC "-//W3C//DTD SVG 20010904//EN"
 "http://www.w3.org/TR/2001/REC-SVG-20010904/DTD/svg10.dtd">
<svg version="1.0" xmlns="http://www.w3.org/2000/svg"
 width="700.000000pt" height="700.000000pt" viewBox="0 0 700.000000 700.000000"
 preserveAspectRatio="xMidYMid meet">
<metadata>
Created by potrace 1.14, written by Peter Selinger 2001-2017
</metadata>
<g transform="translate(0.000000,700.000000) scale(0.100000,-0.100000)"
fill="#000000" stroke="none">
<path d="M6027 6284 c-2 -3 -45 -9 -122 -18 -16 -2 -50 -7 -75 -10 -178 -25
-298 -31 -575 -31 -221 1 -461 9 -580 20 -282 27 -1094 27 -1255 0 -14 -2 -47
-6 -75 -9 -82 -9 -128 -15 -165 -22 -71 -12 -87 -15 -160 -31 -41 -8 -82 -16
-90 -18 -127 -26 -384 -108 -535 -170 -93 -39 -283 -139 -364 -191 -434 -283
-688 -650 -749 -1084 -9 -64 -8 -285 2 -350 13 -86 53 -215 93 -295 136 -277
382 -430 703 -439 62 -2 227 19 280 35 76 23 188 75 255 118 65 42 225 192
225 211 0 5 7 15 15 23 18 19 79 140 93 187 37 122 27 278 -18 281 -99 7 -179
80 -213 197 -19 62 -15 189 7 252 50 136 161 244 331 320 59 27 164 63 219 75
186 42 307 54 536 55 325 0 485 -35 916 -200 274 -106 445 -140 669 -135 72 2
139 6 150 8 11 2 38 8 60 12 22 4 51 9 64 12 89 16 231 79 329 145 172 116
303 297 368 507 26 85 40 189 38 286 -2 110 -18 162 -64 206 -48 46 -107 61
-222 58 -49 -2 -90 -4 -91 -5z"/>
<path d="M4302 5013 c-86 -17 -156 -57 -209 -119 -55 -63 -80 -110 -133 -249
-23 -60 -46 -119 -50 -130 -10 -22 -45 -114 -95 -250 -128 -351 -158 -431
-163 -437 -4 -4 -88 -8 -187 -9 -232 -3 -311 -25 -389 -105 -55 -57 -79 -117
-82 -210 -4 -95 8 -140 48 -189 40 -48 72 -63 154 -70 154 -13 189 -17 192
-20 5 -5 -45 -81 -118 -180 -36 -50 -112 -135 -167 -190 -258 -258 -553 -395
-839 -390 -159 3 -271 31 -373 93 -143 87 -213 194 -229 350 -11 99 -42 123
-152 116 -286 -18 -543 -209 -694 -514 -44 -89 -91 -227 -101 -295 -4 -22 -10
-55 -15 -74 -12 -46 -5 -365 10 -421 6 -25 13 -52 15 -60 2 -8 13 -44 25 -79
79 -236 252 -438 480 -563 112 -61 314 -125 450 -143 25 -3 68 -8 95 -12 96
-11 320 -6 435 11 215 32 425 105 610 214 177 104 271 178 435 346 282 287
508 649 724 1161 40 94 78 184 86 200 7 17 31 80 53 140 62 171 59 166 101
160 163 -24 519 -36 641 -22 271 31 489 221 537 467 26 140 -32 249 -154 286
-63 19 -249 22 -615 11 -142 -4 -186 -3 -183 6 2 7 60 184 130 395 69 211 134
414 144 452 32 113 17 205 -42 261 -66 63 -233 91 -375 62z"/>
<path d="M4635 2815 c-71 -25 -154 -129 -227 -286 -48 -102 -188 -468 -212
-554 -2 -5 -6 -17 -9 -25 -3 -8 -24 -67 -45 -130 -22 -63 -56 -162 -76 -220
-67 -196 -89 -309 -90 -460 -1 -146 8 -190 51 -240 59 -70 184 -89 271 -40 34
19 49 37 71 85 16 33 29 67 29 75 1 8 3 88 6 178 3 89 7 166 10 171 3 4 8 22
11 40 3 18 17 60 30 92 64 158 189 252 289 219 78 -25 83 -76 25 -240 -75
-213 -83 -247 -83 -361 -1 -98 1 -109 29 -164 43 -83 100 -118 199 -122 199
-6 368 133 536 441 65 118 130 256 130 274 0 52 -97 87 -126 46 -92 -129 -160
-165 -252 -133 -80 28 -88 129 -23 319 39 114 43 132 39 200 -6 92 -32 148
-90 190 -125 91 -318 52 -478 -95 -52 -48 -75 -58 -91 -39 -10 12 -10 27 -1
73 14 68 16 71 113 270 119 242 123 254 134 328 14 97 -63 146 -170 108z"/>
<path d="M5880 2059 c-41 -12 -113 -79 -135 -126 -29 -60 -38 -143 -21 -184
20 -47 88 -109 124 -110 59 -3 87 2 135 28 72 40 97 78 110 167 14 100 2 142
-58 191 -50 41 -97 51 -155 34z"/>
</g>
</svg>
